<svg width="24" height="24" viewBox="0 0 24 24" fill="none" xmlns="http://www.w3.org/2000/svg">
<path fill-rule="evenodd" clip-rule="evenodd" d="M12.0208 0.0898438C5.40647 0.0898438 0.0429688 5.5438 0.0429688 12.2721C0.0429688 17.6547 3.47497 22.2212 8.23411 23.832C8.83272 23.9448 9.05249 23.5678 9.05249 23.246C9.05249 22.9555 9.04138 21.9958 9.03623 20.9779C5.70399 21.7148 5.00085 19.5405 5.00085 19.5405C4.45599 18.1324 3.67094 17.7579 3.67094 17.7579C2.58419 17.0018 3.75285 17.0174 3.75285 17.0174C4.95563 17.1031 5.58895 18.2728 5.58895 18.2728C6.65725 20.1352 8.391 19.5968 9.07451 19.2855C9.18201 18.4983 9.49242 17.9605 9.83497 17.6565C7.17454 17.3484 4.37784 16.3038 4.37784 11.6358C4.37784 10.3058 4.84575 9.21904 5.61196 8.36589C5.4876 8.05885 5.07761 6.81998 5.72799 5.14194C5.72799 5.14194 6.73381 4.81452 9.02274 6.39069C9.97818 6.12076 11.0028 5.9854 12.0208 5.98076C13.0387 5.9854 14.0641 6.12076 15.0213 6.39069C17.3075 4.81452 18.3119 5.14194 18.3119 5.14194C18.9639 6.81998 18.5537 8.05885 18.4293 8.36589C19.1973 9.21904 19.6621 10.3058 19.6621 11.6358C19.6621 16.3149 16.86 17.3452 14.1929 17.6468C14.6225 18.0248 15.0053 18.7662 15.0053 19.9028C15.0053 21.5326 14.9914 22.8445 14.9914 23.246C14.9914 23.5702 15.207 23.9501 15.8141 23.8304C20.5707 22.2177 23.9983 17.6528 23.9983 12.2721C23.9983 5.5438 18.6356 0.0898438 12.0208 0.0898438Z" fill="#43403B"/>
<path fill-rule="evenodd" clip-rule="evenodd" d="M4.57956 17.581C4.55318 17.6417 4.45956 17.6597 4.37427 17.6181C4.2874 17.5784 4.23861 17.4959 4.26677 17.4352C4.29256 17.3728 4.38637 17.3557 4.47305 17.397C4.56013 17.437 4.60971 17.5203 4.57956 17.581Z" fill="#43403B"/>
<path fill-rule="evenodd" clip-rule="evenodd" d="M5.06472 18.1314C5.0076 18.1852 4.89593 18.1602 4.82016 18.0751C4.74181 17.9901 4.72713 17.8766 4.78505 17.8219C4.84396 17.768 4.95226 17.7932 5.0308 17.8782C5.10915 17.9641 5.12442 18.0769 5.06472 18.1314Z" fill="#43403B"/>
<path fill-rule="evenodd" clip-rule="evenodd" d="M5.53699 18.833C5.4636 18.8848 5.3436 18.8362 5.26941 18.7279C5.19603 18.6196 5.19603 18.4896 5.271 18.4376C5.34538 18.3855 5.4636 18.4324 5.53877 18.5399C5.61196 18.6498 5.61196 18.7799 5.53699 18.833Z" fill="#43403B"/>
<path fill-rule="evenodd" clip-rule="evenodd" d="M6.18399 19.5108C6.11834 19.5845 5.97851 19.5647 5.87616 19.4642C5.77143 19.366 5.74227 19.2266 5.80813 19.153C5.87457 19.0791 6.0152 19.0999 6.11834 19.1996C6.22227 19.2976 6.25401 19.438 6.18399 19.5108Z" fill="#43403B"/>
<path fill-rule="evenodd" clip-rule="evenodd" d="M7.07656 19.9044C7.0476 19.9998 6.91292 20.0432 6.77725 20.0027C6.64178 19.9609 6.55312 19.8491 6.58049 19.7527C6.60865 19.6567 6.74393 19.6115 6.88059 19.6549C7.01586 19.6964 7.10472 19.8074 7.07656 19.9044Z" fill="#43403B"/>
<path fill-rule="evenodd" clip-rule="evenodd" d="M8.05679 19.9775C8.06016 20.0779 7.94512 20.1612 7.8027 20.1628C7.6595 20.1663 7.54366 20.085 7.54208 19.9861C7.54208 19.8847 7.65454 19.8021 7.79775 19.7997C7.94016 19.7969 8.05679 19.8776 8.05679 19.9775Z" fill="#43403B"/>
<path fill-rule="evenodd" clip-rule="evenodd" d="M8.96899 19.8195C8.98604 19.9175 8.88707 20.0182 8.74565 20.0448C8.60661 20.0709 8.47788 20.0103 8.46023 19.9131C8.44297 19.8126 8.54373 19.712 8.68257 19.6859C8.82419 19.6609 8.95094 19.7198 8.96899 19.8195Z" fill="#43403B"/>
</svg>
